HIERARCHY
ROOT Hips
{
	OFFSET 0.00 0.00 0.00
	CHANNELS 6 Xposition Yposition Zposition Xrotation Yrotation Zrotation
	JOINT RightUpLeg
	{
		OFFSET -4.47808 0.00000 0.00000
		CHANNELS 3 Xrotation Yrotation Zrotation
		JOINT RightLeg
		{
			OFFSET 0.00000 -16.40577 0.00000
			CHANNELS 3 Xrotation Yrotation Zrotation
			JOINT RightFoot
			{
				OFFSET 0.00000 -14.64414 0.00000
				CHANNELS 3 Xrotation Yrotation Zrotation
				JOINT RightToeBase
				{
					OFFSET 0.00000 -1.50274 5.60831
					CHANNELS 3 Xrotation Yrotation Zrotation
					End Site
					{
						OFFSET 0.00000 0.00000 2.95275
					}
				}
			}
		}
	}
	JOINT LeftUpLeg
	{
		OFFSET 4.47808 0.00000 0.00000
		CHANNELS 3 Xrotation Yrotation Zrotation
		JOINT LeftLeg
		{
			OFFSET 0.00000 -16.40577 0.00000
			CHANNELS 3 Xrotation Yrotation Zrotation
			JOINT LeftFoot
			{
				OFFSET 0.00000 -14.64414 0.00000
				CHANNELS 3 Xrotation Yrotation Zrotation
				JOINT LeftToeBase
				{
					OFFSET 0.00000 -1.50274 5.60831
					CHANNELS 3 Xrotation Yrotation Zrotation
					End Site
					{
						OFFSET 0.00000 0.00000 2.95275
					}
				}
			}
		}
	}
	JOINT Spine
	{
		OFFSET 0.00000 6.06821 0.00000
		CHANNELS 3 Xrotation Yrotation Zrotation
		JOINT RightShoulder
		{
			OFFSET 0.00000 10.01392 0.00000
			CHANNELS 3 Xrotation Yrotation Zrotation
			JOINT RightArm
			{
				OFFSET -7.19022 0.00000 0.00000
				CHANNELS 3 Xrotation Yrotation Zrotation
				JOINT RightForeArm
				{
					OFFSET -10.17747 0.00000 0.00000
					CHANNELS 3 Yrotation Zrotation Xrotation
					JOINT RightHand
					{
						OFFSET -8.39211 0.00000 0.00000
						CHANNELS 3 Xrotation Yrotation Zrotation
						End Site
						{
							OFFSET -3.93700 0.00000 0.00000
						}
						JOINT RightHandThumb1
						{
							OFFSET 0.00000 0.00000 0.00000
							CHANNELS 3 Xrotation Zrotation Yrotation
							End Site
							{
								OFFSET 0.00000 0.00000 3.93700
							}
						}
					}
				}
			}
		}
		JOINT LeftShoulder
		{
			OFFSET 0.00000 10.01392 0.00000
			CHANNELS 3 Xrotation Yrotation Zrotation
			JOINT LeftArm
			{
				OFFSET 7.19022 0.00000 0.00000
				CHANNELS 3 Xrotation Yrotation Zrotation
				JOINT LeftForeArm
				{
					OFFSET 10.17747 0.00000 0.00000
					CHANNELS 3 Yrotation Zrotation Xrotation
					JOINT LeftHand
					{
						OFFSET 8.39211 0.00000 0.00000
						CHANNELS 3 Xrotation Yrotation Zrotation
						End Site
						{
							OFFSET 3.93700 0.00000 0.00000
						}
						JOINT LeftHandThumb1
						{
							OFFSET 0.00000 0.00000 0.00000
							CHANNELS 3 Xrotation Zrotation Yrotation
							End Site
							{
								OFFSET 0.00000 0.00000 3.93700
							}
						}
					}
				}
			}
		}
		JOINT Head
		{
			OFFSET 0.00000 15.77748 0.00000
			CHANNELS 3 Xrotation Yrotation Zrotation
			End Site
			{
				OFFSET 0.00000 4.52755 0.00000
			}
		}
	}
}
MOTION
Frames: 9
Frame Time: 0.008333
 -3.4849 32.9844 -0.0408 8.4964 -1.7794 2.8924 1.6267 0.9114 -0.8180 -0.6374 0.0000 -0.0000 -14.2504 -14.7808 -4.4301 5.6214 -0.0000 0.0000 1.1903 -0.7039 0.1768 0.5391 -0.0000 -0.0000 -12.3333 8.4306 -9.7022 10.0357 -0.0000 0.0000 -11.2542 -1.8002 -1.6518 0.0544 -23.2111 -28.9512 -31.0063 -1.5809 35.9272 12.4037 -0.0000 13.8651 -1.5735 8.4140 10.6326 32.8623 0.0000 -24.3270 -11.4786 21.8027 34.3598 -31.6288 4.7368 -31.4545 -0.8231 0.0000 25.1023 0.8085 4.7662 -9.6388 33.1476 -0.0000 26.2537 -2.2259 2.8716 -2.2956
 -3.4846 32.9840 -0.0389 8.4953 -1.7778 2.8944 1.6350 0.9222 -0.8207 -0.6448 0.0000 -0.0000 -14.2562 -14.7937 -4.4546 5.6347 -0.0000 0.0000 1.1930 -0.6949 0.1737 0.5426 0.0000 0.0000 -12.3352 8.4191 -9.6890 9.9823 -0.0000 -0.0000 -11.2579 -1.8005 -1.6546 0.0615 -23.2136 -28.9496 -31.0278 -1.5736 35.9313 12.3805 -0.0000 13.8668 -1.5753 8.4305 10.6241 32.8623 0.0000 -24.3270 -11.4739 21.8055 34.3667 -31.6421 4.7474 -31.4552 -0.8389 0.0000 25.1076 0.8131 4.7857 -9.6538 33.1476 -0.0000 26.2537 -2.2274 2.8783 -2.2821
 -3.4842 32.9837 -0.0370 8.4911 -1.7753 2.8963 1.6424 0.9289 -0.8231 -0.6431 -0.0000 0.0000 -14.2636 -14.8055 -4.4356 5.6394 -0.0000 -0.0000 1.2001 -0.6923 0.1704 0.5414 0.0000 0.0000 -12.3350 8.4146 -9.6895 9.9740 -0.0000 0.0000 -11.2561 -1.7982 -1.6553 0.0503 -23.1973 -28.9572 -31.0068 -1.5848 35.9217 12.3782 -0.0000 13.8414 -1.5898 8.4678 10.6738 32.8623 0.0000 -24.3270 -11.4931 21.7885 34.3801 -31.6494 4.7664 -31.4568 -0.8351 0.0000 25.1064 0.8148 4.7970 -9.6517 33.1476 -0.0000 26.2537 -2.2243 2.8812 -2.2747
 -3.4841 32.9833 -0.0338 8.4919 -1.7771 2.8945 1.6490 0.9163 -0.8223 -0.6477 -0.0000 0.0000 -14.2599 -14.7928 -4.4198 5.6237 -0.0000 -0.0000 1.2092 -0.6913 0.1727 0.5327 -0.0000 0.0000 -12.3401 8.4178 -9.6946 9.9862 0.0000 0.0000 -11.2706 -1.7978 -1.6470 0.0671 -23.2034 -28.9613 -31.0339 -1.5744 35.9271 12.3607 -0.0000 13.8404 -1.5892 8.4543 10.6865 32.8623 0.0000 -24.3270 -11.4897 21.7902 34.3754 -31.6513 4.7533 -31.4504 -0.8256 0.0000 25.0930 0.8133 4.7967 -9.6348 33.1476 -0.0000 26.2537 -2.1997 2.8786 -2.2864
 -3.4835 32.9830 -0.0317 8.4940 -1.7752 2.8940 1.6516 0.9372 -0.8240 -0.6473 -0.0000 0.0000 -14.2653 -14.8055 -4.4386 5.6092 0.0000 -0.0000 1.2096 -0.7142 0.1728 0.5349 -0.0000 0.0000 -12.3430 8.4276 -9.6885 9.9752 0.0000 0.0000 -11.2758 -1.7971 -1.6437 0.0444 -23.1989 -28.9646 -31.0239 -1.5642 35.9210 12.3529 -0.0000 13.8458 -1.6014 8.4935 10.7185 32.8623 0.0000 -24.3270 -11.5096 21.7879 34.3817 -31.6554 4.7531 -31.4499 -0.8356 0.0000 25.0976 0.8200 4.8267 -9.6534 33.1476 -0.0000 26.2537 -2.2049 2.8808 -2.2840
 -3.4850 32.9820 -0.0296 8.4911 -1.7757 2.8820 1.6606 0.9515 -0.8080 -0.6534 -0.0000 0.0000 -14.2607 -14.8221 -4.4339 5.6099 0.0000 0.0000 1.2056 -0.6298 0.1906 0.5581 -0.0000 0.0000 -12.3633 8.3438 -9.7446 9.9802 -0.0000 0.0000 -11.2771 -1.8065 -1.6299 0.0467 -23.2005 -28.9680 -31.0469 -1.5653 35.9306 12.3569 -0.0000 13.8524 -1.6008 8.4848 10.7251 32.8623 0.0000 -24.3270 -11.5272 21.7897 34.3946 -31.6501 4.7546 -31.4519 -0.8422 0.0000 25.1019 0.8197 4.8285 -9.6468 33.1476 -0.0000 26.2537 -2.2104 2.8829 -2.2756
 -3.4852 32.9816 -0.0271 8.4917 -1.7780 2.8813 1.6636 0.9692 -0.8082 -0.6490 -0.0000 -0.0000 -14.2739 -14.8351 -4.4486 5.6148 -0.0000 -0.0000 1.2131 -0.6192 0.1918 0.5489 0.0000 -0.0000 -12.3637 8.3299 -9.7348 10.0228 -0.0000 -0.0000 -11.2869 -1.8063 -1.6265 0.0328 -23.1855 -28.9732 -31.0397 -1.5671 35.9264 12.3526 -0.0000 13.8540 -1.6067 8.4982 10.7477 32.8623 0.0000 -24.3270 -11.5062 21.8069 34.3885 -31.6682 4.7487 -31.4491 -0.8509 0.0000 25.0915 0.8149 4.7980 -9.6507 33.1476 -0.0000 26.2537 -2.2018 2.8970 -2.2756
 -3.4848 32.9812 -0.0239 8.4929 -1.7789 2.8829 1.6678 0.9420 -0.8093 -0.6510 0.0000 0.0000 -14.2716 -14.8094 -4.4301 5.6140 0.0000 -0.0000 1.2257 -0.6437 0.1885 0.5351 0.0000 -0.0000 -12.3594 8.3600 -9.7232 9.9716 -0.0000 -0.0000 -11.3012 -1.7928 -1.6248 0.0376 -23.1997 -28.9755 -31.0609 -1.5732 35.9326 12.3573 -0.0000 13.8643 -1.6051 8.4814 10.7577 32.8623 0.0000 -24.3270 -11.4882 21.8029 34.3825 -31.6758 4.7444 -31.4467 -0.8635 0.0000 25.0915 0.8178 4.8102 -9.6610 33.1476 -0.0000 26.2537 -2.1902 2.8831 -2.2774
 -3.4837 32.9811 -0.0215 8.4962 -1.7719 2.8857 1.6708 0.9432 -0.8151 -0.6537 0.0000 0.0000 -14.2784 -14.8154 -4.4424 5.6191 -0.0000 0.0000 1.2234 -0.6475 0.1843 0.5371 -0.0000 0.0000 -12.3571 8.3617 -9.7381 9.9701 -0.0000 -0.0000 -11.3147 -1.7933 -1.6219 0.0320 -23.2016 -28.9823 -31.0514 -1.5624 35.9344 12.3496 -0.0000 13.8433 -1.6054 8.4913 10.7475 32.8623 0.0000 -24.3270 -11.5007 21.7929 34.3815 -31.6639 4.7412 -31.4439 -0.8761 0.0000 25.1069 0.8192 4.8217 -9.6546 33.1476 -0.0000 26.2537 -2.1803 2.8765 -2.2929
